<svg xmlns="http://www.w3.org/2000/svg" width="160.816" height="57.182" viewBox="0 0 160.816 57.182">
  <g id="logo" transform="translate(5134.35 -2169.65)">
    <path id="Exclusion_4" data-name="Exclusion 4" d="M66.264,56.482A25.571,25.571,0,0,1,43.071,20.169h0a11,11,0,0,1-1.1-.532,9.824,9.824,0,0,1-3.8-3.769A10.65,10.65,0,0,1,36.8,10.5,10.65,10.65,0,0,1,38.168,5.14a9.827,9.827,0,0,1,3.8-3.771A10.975,10.975,0,0,1,47.267,0h.323A11.026,11.026,0,0,1,52.9,1.369,9.822,9.822,0,0,1,56.709,5.14,10.664,10.664,0,0,1,57.5,6.906,25.483,25.483,0,0,0,55.088,7.93a8.186,8.186,0,0,0-.655-1.519,7.455,7.455,0,0,0-2.878-2.878,8.254,8.254,0,0,0-4.012-1.043h-.219a8.182,8.182,0,0,0-4,1.05,7.516,7.516,0,0,0-2.878,2.878A8.155,8.155,0,0,0,39.407,10.5a8.148,8.148,0,0,0,1.034,4.082,7.518,7.518,0,0,0,2.878,2.879,8.177,8.177,0,0,0,.94.453c-.43.725-.829,1.483-1.187,2.254h0a10.885,10.885,0,0,0,4.2.837h.322A11.017,11.017,0,0,0,52.9,19.637a9.818,9.818,0,0,0,3.808-3.769A10.661,10.661,0,0,0,58.077,10.5a10.624,10.624,0,0,0-.576-3.6,25.452,25.452,0,0,1,4.742-1.227V20.664H70.38l.176,0a6.247,6.247,0,0,0,4.2-1.62,5.166,5.166,0,0,0,1.772-3.983,5.642,5.642,0,0,0-.815-3.006A4.763,4.763,0,0,0,73.5,10.117,4.832,4.832,0,0,0,75.311,8.19a5.515,5.515,0,0,0,.431-1.011,25.512,25.512,0,0,1,6.548,3.832l-3.943,9.653h2.707l1.984-4.86h3.836a25.786,25.786,0,0,0-1.7-2.072H91.9L87.928,4.121l-3.555,8.765a25.814,25.814,0,0,0-2.084-1.875L86.649.338h2.382L97.58,20.663v0H94.817L92.8,15.8H86.874a25.616,25.616,0,0,1,3.894,22.41L82.013,26.188h-2.3V46.514h2.5V30.652L89.758,41A25.544,25.544,0,0,1,66.264,56.482Zm86.285-9.706A8.076,8.076,0,0,1,147.506,45a5.911,5.911,0,0,1-2.062-4.747h2.594a3.57,3.57,0,0,0,1.361,2.941,5.5,5.5,0,0,0,3.275,1.09c.08,0,.16,0,.239-.005s.131,0,.2,0a5.343,5.343,0,0,0,3.064-.96,2.993,2.993,0,0,0,1.3-2.549,2.649,2.649,0,0,0-.1-.731,3.743,3.743,0,0,0-.226-.609,1.623,1.623,0,0,0-.4-.5c-.184-.161-.351-.3-.5-.41a2.868,2.868,0,0,0-.645-.347c-.283-.118-.513-.213-.687-.284a7.347,7.347,0,0,0-.8-.245l-.808-.213c-.161-.042-.424-.106-.88-.212a21.536,21.536,0,0,1-3.714-1.148,4.633,4.633,0,0,1-2.82-3.529,6.114,6.114,0,0,1-.071-.947,5.065,5.065,0,0,1,1.871-4.14,7.837,7.837,0,0,1,4.626-1.525c.14,0,.283,0,.423.012.133-.007.268-.011.4-.011a7.215,7.215,0,0,1,4.567,1.633,5.579,5.579,0,0,1,1.821,4.4h-2.525a3.179,3.179,0,0,0-1.211-2.622,4.879,4.879,0,0,0-2.906-.968c-.068,0-.137,0-.205,0s-.147,0-.22,0a5.293,5.293,0,0,0-2.877.848,2.609,2.609,0,0,0-1.212,2.261,2.4,2.4,0,0,0,.149.858,2.925,2.925,0,0,0,.362.68,2.276,2.276,0,0,0,.623.552,7.245,7.245,0,0,0,.751.426,6.93,6.93,0,0,0,.943.346c.4.122.734.218,1,.284s.623.153,1.105.269a22.1,22.1,0,0,1,3.714,1.163,4.778,4.778,0,0,1,2.977,3.5,6.052,6.052,0,0,1,.113,1.191A5.545,5.545,0,0,1,159.158,44a5.872,5.872,0,0,1-2.566,2.068,9.069,9.069,0,0,1-3.491.7h-.158C152.813,46.773,152.68,46.776,152.549,46.776Zm-56.632-.261h-2.14L89.758,41a25.472,25.472,0,0,0,1.008-2.785l2.656,3.648V26.188h2.494V46.514Zm28.223,0H121.9l-6.548-20.326h2.707l5.061,16.145,5.953-15.748h1.02l6.122,15.763,4.935-16.159h2.693l-6.408,20.325h-2.251L129.6,32.069,124.14,46.514Zm-10.872,0H101.445V26.188h11.51v2.424h-8.972v6.279h8.2v2.353h-8.2v6.832h9.285v2.437ZM10.169,21A10.5,10.5,0,0,1,5.016,19.65a9.57,9.57,0,0,1-3.689-3.755A11.018,11.018,0,0,1,0,10.5,10.934,10.934,0,0,1,1.327,5.131,9.624,9.624,0,0,1,5,1.382,10.359,10.359,0,0,1,10.116.027h.149l.187,0A10.545,10.545,0,0,1,16.715,2.1a8.622,8.622,0,0,1,3.445,5.322H17.536A6.407,6.407,0,0,0,14.9,3.878a7.9,7.9,0,0,0-4.437-1.355h-.135c-.082,0-.164,0-.245,0a7.423,7.423,0,0,0-5.3,2.242A7.951,7.951,0,0,0,2.611,10.5a8.054,8.054,0,0,0,2.141,5.773,7.406,7.406,0,0,0,5.288,2.238c.093,0,.188,0,.282-.005l.2,0A7.757,7.757,0,0,0,15.134,17a6.619,6.619,0,0,0,2.573-4H9.585V10.572h10.9a11.71,11.71,0,0,1-.82,4.2,10.164,10.164,0,0,1-2.1,3.31,9.237,9.237,0,0,1-3.2,2.146A10.43,10.43,0,0,1,10.414,21h-.245Zm102.154-.34H100.856V.338h2.537V18.283h8.931v2.381Zm-76.3,0H24.551V.338h2.537l0,17.945h8.93v2.381ZM47.548,18.51h-.224a8.134,8.134,0,0,1-3.065-.6A25.565,25.565,0,0,1,55.088,7.93a8.165,8.165,0,0,1,.379,2.571,8.2,8.2,0,0,1-1.035,4.09,7.468,7.468,0,0,1-2.878,2.878A8.253,8.253,0,0,1,47.548,18.51Zm22.926-.369-.122,0H64.77V11.42h5.585l.107,0a3.511,3.511,0,0,1,2.423.965,3.172,3.172,0,0,1,1.013,2.4,3.18,3.18,0,0,1-1.006,2.4A3.522,3.522,0,0,1,70.474,18.142Zm14.7-4.409H84.03l.343-.846c.282.283.552.567.8.844ZM70.307,8.927H64.766V5.407c-.84.049-1.689.139-2.523.271V.338h8.023q.1,0,.2,0a5.829,5.829,0,0,1,3.9,1.492A4.826,4.826,0,0,1,75.991,5.54a5.5,5.5,0,0,1-.249,1.638h0c-.775-.309-1.574-.584-2.376-.815A2.911,2.911,0,0,0,73.4,5.88a2.873,2.873,0,0,0-.92-2.171,3.149,3.149,0,0,0-2.19-.881h-5.52V5.407c.5-.029,1.006-.043,1.5-.043a25.6,25.6,0,0,1,7.1,1,2.9,2.9,0,0,1-.881,1.679A3.1,3.1,0,0,1,70.307,8.927Z" transform="translate(-5134 2170)" fill="#f8c61a" stroke="#f8c61a" stroke-width="0.7"/>
    <path id="Intersection_1" data-name="Intersection 1" d="M36.645,41.107V20.78h2.3L47.7,32.808A25.355,25.355,0,0,1,46.687,35.6L39.139,25.245V41.107ZM0,14.761a25.486,25.486,0,0,1,1.188-2.255,8.165,8.165,0,0,0,3.171.6,8.235,8.235,0,0,0,4.124-1.041,7.456,7.456,0,0,0,2.877-2.878A8.176,8.176,0,0,0,12.4,5.093a8.169,8.169,0,0,0-.379-2.57A25.383,25.383,0,0,1,14.43,1.5,10.647,10.647,0,0,1,15,5.1a10.646,10.646,0,0,1-1.367,5.364A9.828,9.828,0,0,1,9.831,14.23h0A10.989,10.989,0,0,1,4.36,15.6H4.195A10.941,10.941,0,0,1,0,14.761Zm27.309.5H19.172V.271Q20.414.075,21.694,0V3.519h5.457a3.123,3.123,0,0,0,2.262-.884A2.9,2.9,0,0,0,30.293.956q1.214.351,2.377.816a5.5,5.5,0,0,1-.431,1.011A4.829,4.829,0,0,1,30.429,4.71a4.79,4.79,0,0,1,2.216,1.941,5.653,5.653,0,0,1,.814,3.005,5.18,5.18,0,0,1-1.771,3.983,6.261,6.261,0,0,1-4.2,1.62ZM21.7,12.732H27.28a3.538,3.538,0,0,0,2.541-.955,3.178,3.178,0,0,0,1.006-2.4,3.172,3.172,0,0,0-1.013-2.4,3.526,3.526,0,0,0-2.53-.964H21.7Zm13.576,2.524L39.218,5.6A25.725,25.725,0,0,1,41.3,7.479l-.343.846h1.148A25.709,25.709,0,0,1,43.8,10.4H39.966l-1.985,4.859ZM4.359,13.1h0Z" transform="translate(-5090.929 2175.407)" fill="#052962" stroke="#052962" stroke-width="0.7"/>
  </g>
</svg>
