<svg id="linkedin" xmlns="http://www.w3.org/2000/svg" width="18.424" height="17.838" viewBox="0 0 18.424 17.838">
  <g id="Group_38" data-name="Group 38" transform="translate(0 5.171)">
    <g id="Group_37" data-name="Group 37">
      <rect id="Rectangle_26" data-name="Rectangle 26" width="4.12" height="12.667" fill="#052962"/>
    </g>
  </g>
  <g id="Group_40" data-name="Group 40" transform="translate(5.758 5.171)">
    <g id="Group_39" data-name="Group 39">
      <path id="Path_23" data-name="Path 23" d="M169.585,160.149c-.044-.014-.085-.029-.131-.041s-.111-.023-.167-.032a3.692,3.692,0,0,0-.739-.075,5.725,5.725,0,0,0-4.428,2.422V160H160v12.667h4.12v-6.909s3.114-4.337,4.428-1.152v8.061h4.119v-8.548A4.108,4.108,0,0,0,169.585,160.149Z" transform="translate(-160 -160)" fill="#052962"/>
    </g>
  </g>
  <g id="Group_42" data-name="Group 42" transform="translate(0.223 0)">
    <g id="Group_41" data-name="Group 41">
      <circle id="Ellipse_12" data-name="Ellipse 12" cx="1.94" cy="1.94" r="1.94" fill="#052962"/>
    </g>
  </g>
</svg>


