<svg xmlns="http://www.w3.org/2000/svg" width="19.209" height="15.607" viewBox="0 0 19.209 15.607">
  <path id="Path_24" data-name="Path 24" d="M19.209,49.848a8.21,8.21,0,0,1-2.269.622,3.916,3.916,0,0,0,1.732-2.177,7.87,7.87,0,0,1-2.5.953,3.938,3.938,0,0,0-6.812,2.693,4.055,4.055,0,0,0,.091.9,11.146,11.146,0,0,1-8.117-4.119,3.939,3.939,0,0,0,1.21,5.263A3.889,3.889,0,0,1,.768,53.5v.043a3.956,3.956,0,0,0,3.155,3.869,3.931,3.931,0,0,1-1.032.13,3.482,3.482,0,0,1-.746-.067,3.975,3.975,0,0,0,3.68,2.743,7.913,7.913,0,0,1-4.883,1.68A7.376,7.376,0,0,1,0,61.84a11.086,11.086,0,0,0,6.041,1.767A11.131,11.131,0,0,0,17.249,52.4c0-.174-.006-.342-.014-.509A7.856,7.856,0,0,0,19.209,49.848Z" transform="translate(0 -48)" fill=""/>
</svg>
